/* XPM */
static char * sprite4_xpm[] = {
"64 64 200 2",
"  	c #787878",
". 	c #FFFFFF",
"+ 	c #C3C3C3",
"@ 	c #F8D058",
"# 	c #000000",
"$ 	c #F8F8F8",
"% 	c #0F0000",
"& 	c #0B0000",
"* 	c #0E0000",
"= 	c #C86000",
"- 	c #0D0000",
"; 	c #000209",
"> 	c #000105",
", 	c #020204",
"' 	c #020202",
") 	c #010101",
"! 	c #010103",
"~ 	c #000205",
"{ 	c #000409",
"] 	c #090000",
"^ 	c #000407",
"/ 	c #6F4F44",
"( 	c #946C52",
"_ 	c #91674E",
": 	c #91684C",
"< 	c #8B6A57",
"[ 	c #2F1F19",
"} 	c #8D675A",
"| 	c #89685F",
"1 	c #6E5045",
"2 	c #080000",
"3 	c #050000",
"4 	c #000007",
"5 	c #030000",
"6 	c #724C3F",
"7 	c #8E6956",
"8 	c #906753",
"9 	c #8E6855",
"0 	c #916757",
"a 	c #704F3E",
"b 	c #020100",
"c 	c #030002",
"d 	c #030102",
"e 	c #926454",
"f 	c #8F6650",
"g 	c #906755",
"h 	c #8D6953",
"i 	c #916852",
"j 	c #070000",
"k 	c #000103",
"l 	c #010000",
"m 	c #020003",
"n 	c #906751",
"o 	c #916751",
"p 	c #060000",
"q 	c #010002",
"r 	c #505050",
"s 	c #2E1F18",
"t 	c #212121",
"u 	c #3B3B3B",
"v 	c #2F1F17",
"w 	c #2F1F18",
"x 	c #2C2017",
"y 	c #040000",
"z 	c #926757",
"A 	c #2D2017",
"B 	c #2F1F16",
"C 	c #340D14",
"D 	c #370B13",
"E 	c #360C14",
"F 	c #8B6B52",
"G 	c #926850",
"H 	c #936951",
"I 	c #060100",
"J 	c #C09372",
"K 	c #C09374",
"L 	c #BF9370",
"M 	c #BF936E",
"N 	c #BC9574",
"O 	c #413024",
"P 	c #4D121E",
"Q 	c #4C131E",
"R 	c #4E121F",
"S 	c #4C131F",
"T 	c #4D121F",
"U 	c #4B131F",
"V 	c #4A131F",
"W 	c #DC4564",
"X 	c #C19477",
"Y 	c #C09175",
"Z 	c #040003",
"` 	c #C2997D",
" .	c #C4987D",
"..	c #C29880",
"+.	c #C19980",
"@.	c #C2987F",
"#.	c #BE9B7F",
"$.	c #C55466",
"%.	c #43181F",
"&.	c #481520",
"*.	c #471520",
"=.	c #49141F",
"-.	c #481420",
";.	c #48151F",
">.	c #491420",
",.	c #D34C6A",
"'.	c #C45367",
").	c #C75264",
"!.	c #BC997B",
"~.	c #C2997B",
"{.	c #BE967C",
"].	c #020200",
"^.	c #724E40",
"/.	c #704F3C",
"(.	c #704F40",
"_.	c #764944",
":.	c #873342",
"<.	c #97364A",
"[.	c #9D374C",
"}.	c #330D14",
"|.	c #340C14",
"1.	c #9C364B",
"2.	c #983A4C",
"3.	c #8A3343",
"4.	c #754940",
"5.	c #705043",
"6.	c #6F4E3F",
"7.	c #734D42",
"8.	c #6E4F3D",
"9.	c #010100",
"0.	c #715144",
"a.	c #774B42",
"b.	c #834047",
"c.	c #8A3242",
"d.	c #99364A",
"e.	c #9E374C",
"f.	c #9C3B4E",
"g.	c #883444",
"h.	c #803941",
"i.	c #724E42",
"j.	c #704E42",
"k.	c #6F503E",
"l.	c #020001",
"m.	c #6F4F40",
"n.	c #714D41",
"o.	c #754D41",
"p.	c #7F3D41",
"q.	c #8E3646",
"r.	c #9A394C",
"s.	c #9D374D",
"t.	c #9B384C",
"u.	c #9B3A4D",
"v.	c #903145",
"w.	c #813A40",
"x.	c #6E4E3F",
"y.	c #6F4F42",
"z.	c #010204",
"A.	c #000303",
"B.	c #060006",
"C.	c #010302",
"D.	c #2C2421",
"E.	c #302523",
"F.	c #2E2623",
"G.	c #2E2624",
"H.	c #020106",
"I.	c #030104",
"J.	c #000201",
"K.	c #000200",
"L.	c #000100",
"M.	c #000108",
"N.	c #00030D",
"O.	c #050102",
"P.	c #2F2524",
"Q.	c #2F2621",
"R.	c #2F2523",
"S.	c #302624",
"T.	c #010508",
"U.	c #020006",
"V.	c #000004",
"W.	c #00010C",
"X.	c #2F2420",
"Y.	c #322421",
"Z.	c #30251F",
"`.	c #2E2422",
" +	c #060503",
".+	c #040100",
"++	c #020005",
"@+	c #000203",
"#+	c #040301",
"$+	c #000208",
"%+	c #32251F",
"&+	c #010006",
"*+	c #000005",
"=+	c #3B3139",
"-+	c #432F30",
";+	c #40312E",
">+	c #442E31",
",+	c #3E382C",
"'+	c #000309",
")+	c #040007",
"                                                                                                                                ",
"  . . . . . . . . . . . . . . . . . . . . . . . . . . . . . .     + + + + + + + + + + + + + + + + + + + + + + + + + + + + + +   ",
"  . . . . . . . . . . . . . . . . . . . . . . . . . . . . . .     + + + + + + + + + + + + + + + + + + + + + + + + + + + + + +   ",
"  . . . . . . . . . . . . . . . . . . . . . . . . . . . . . .     + + + + + + + + + + + + + + + + + + + + + + + + + + + + + +   ",
"  . . . . . . . . . . . . . . . . . . . . . . . . . . . . . .     + + + + + + + + + + + + + + + + + + + + + + + + + + + + + +   ",
"  . . . . . . . . . . . . . . . . . . . . . . . . . . . . . .     + + + + + + + + + + + + + + + + + + + + + + + + + + + + + +   ",
"  . . . . . . . . . . . . . . . . . . . . . . . . . . . . . .     + + + + + + + + + + + + + + + + + + + + + + + + + + + + + +   ",
"  . . . . . . . . . . . . . . . . . . . . . . . . . . . . . .     + + + + + + + + + + + + + + + + + + + + + + + + + + + + + +   ",
"  . . . . . . . . . . . . . . . . . . . . . . . . . . . . . .     + + + + + + + + + + + + + + + + + + + + + + + + + + + + + +   ",
"  . . . . . . . . . . . . . . . . . . . . . . . . . . . . . .     + + + + + + + + + + + + + + + + + + + + + + + + + + + + + +   ",
"  . . . . . . . . . . . . . . . . . . . . . . . . . . . . . .     + + + + + + + + + + + + + + + + + + + + + + + + + + + + + +   ",
"  . . . . . . . . . . . . . . . . . . . . . . . . . . . . . .     + + + + + + + + + + + + + + + + + + + + + + + + + + + + + +   ",
"  . . . . . . . . . . . . . . . . . . . . . . . . . . . . . .     + + + + + + + + + + + + + + + + + + + + + + + + + + + + + +   ",
"  . . . . . . . . . . . . . . . . . . . . . . . . . . . . . .     + + + + + + + + + + + + + + + + + + + + + + + + + + + + + +   ",
"  . . . . . . . . . . . . . . . . . . . . . . . . . @ # # # # # # # # # # @ + + + + + + + + + + + + + + + + + + + + + + + + +   ",
"  . . . . . . . . . . . . . . . . . . . . . . . @ # # @ @ @ $ $ $ $ @ @ @ # # @ + + + + + + + + + + + + + + + + + + + + + + +   ",
"  . . . . . . . . . . . . . . . . . . . . . @ # # @ $ # # # # # # # # # # $ @ # # @ + + + + + + + + + + + + + + + + + + + + +   ",
"  . . . . . . . . . . . . . . . . . . . . @ # @ $ # # $ $ $ $ $ $ $ $ $ $ # # $ @ # @ + + + + + + + + + + + + + + + + + + + +   ",
"  . . . . % & * * * * * * * * * * * * * @ # @ # # $ @ @ # = # # = = # # @ @ $ # # @ # @ - * * * * * * * * * * * * * % + + + +   ",
"  . . . . ; > , , ' , , ' ' , , ' , ) ) # $ # $ $ @ # # = = = = = = = = # # @ $ $ # $ # # ! , ' , , ' ' , , ' , , ~ { + + + +   ",
"  . . ] ^ / ( _ _ _ _ _ : : _ _ : _ < [ # @ # @ # # = = @ @ @ @ @ @ @ @ @ = # # @ # @ # } _ _ : _ _ : : _ _ : _ _ | 1 2 3 + +   ",
"  . . 4 5 6 7 8 8 8 9 9 9 9 9 9 9 9 # # $ # @ # = = @ @ @ = = = = @ = = @ @ = = # @ # $ # # 9 9 9 9 9 9 9 9 9 9 9 0 a 3 b + +   ",
"  . . c d e f g g 9 9 9 h h 9 9 h # $ $ @ # # = @ @ @ @ @ @ = # = $ $ @ = @ @ = = # # @ $ $ # h 9 9 h h 9 9 h 9 9 0 i j k + +   ",
"  . . l m n 9 9 9 9 9 9 9 9 9 9 9 # $ @ # = = @ @ @ = # = @ @ = = $ @ = # = @ @ @ = @ # @ $ # 9 9 9 9 9 9 9 9 9 9 o 9 p q + +   ",
"  . r l m n 9 9 9 9 9 9 9 9 9 9 s # $ @ # @ @ @ @ @ = $ @ @ @ $ $ @ = = # # = = @ @ = # @ $ # 9 9 9 9 9 9 9 9 9 9 o 9 p q + +   ",
"  . r l m n 9 9 9 9 9 9 9 9 9 9 s # $ @ # = @ = @ @ @ @ $ $ $ @ = $ @ = # = @ = @ @ = # @ @ # 9 9 9 9 9 9 9 9 9 9 o 9 p q + +   ",
"  . r l m n 9 9 9 9 9 9 9 9 9 9 @ # # @ @ # = @ @ = = # = $ = # # = = @ = = @ @ @ @ # $ @ # # @ 9 9 9 9 9 9 9 9 9 o 9 p q + +   ",
"  . r l m n 9 9 9 9 9 9 9 9 9 9 # = # # @ # = @ @ @ @ = # = @ = = = @ @ @ @ @ @ = = # @ # # = # 9 9 9 9 9 9 9 9 9 o 9 p q + +   ",
"  . r l m n 9 9 9 9 9 9 9 9 9 s # @ = # # @ # = = @ @ @ = = @ @ @ @ @ @ @ @ @ = @ # @ # # = @ # 9 9 9 9 9 9 9 9 9 o 9 p q + +   ",
"  . r l m n 9 9 9 9 9 9 9 9 9 s # @ @ # # # @ # # = @ @ @ @ @ @ @ @ @ @ @ = @ = # @ # # # @ @ # 9 9 9 9 9 9 9 9 9 o 9 p q + +   ",
"  . r l m n 9 9 9 9 9 9 9 9 9 s # @ $ = # = # @ $ # # = = @ = = @ @ @ = = # # $ @ # = # = $ @ # 9 9 9 9 9 9 9 9 9 o 9 p q + +   ",
"    t l m n 9 9 9 9 9 9 9 9 9 s # @ $ @ # = = # # @ $ # # = = # = # = # # $ @ # # = = # @ $ @ # 9 9 9 9 9 9 9 9 9 o 9 p q       ",
"    t l m n 9 9 9 9 9 9 9 9 9 s = # $ @ = # = = = # # @ @ @ $ $ $ $ @ @ @ # # = = = # = @ $ # = 9 9 9 9 9 9 9 9 9 o 9 p q       ",
"  + u l m n 9 9 9 9 9 9 9 9 9 s s # @ $ @ = # # = = = # # # # # # # # # # = = = # # = @ $ @ # 9 9 9 9 9 9 9 9 9 9 o 9 p q . .   ",
"  + u l m n 9 9 9 9 9 9 9 9 9 s s = # @ $ @ @ = # # # = = = = = = = = = = # # # = @ @ $ @ # = 9 9 9 9 9 9 9 9 9 9 o 9 p q . .   ",
"  + u l m n 9 9 9 9 9 9 9 9 9 9 s s = # @ $ $ @ @ @ = # # # # # # # # # # = @ @ @ $ $ @ # = 9 9 9 9 9 9 9 9 9 9 9 o 9 p q . .   ",
"  + u l m n 9 9 9 9 9 9 9 9 9 9 s s v = # @ @ $ $ $ $ @ @ @ @ @ @ @ @ @ @ $ $ $ $ @ @ # = s 9 9 9 9 9 9 9 9 9 9 9 o 9 p q . .   ",
"  + u l m o 9 9 9 9 9 9 9 9 9 9 9 s w s = # # @ @ @ @ $ $ $ $ $ $ $ $ $ $ @ @ @ @ # # = x 9 9 9 9 9 9 9 9 9 9 9 9 8 9 y q . .   ",
"  + u l 5 _ 8 z z 0 z z 0 0 z z 0 z A B C D = # # # # @ @ @ @ @ @ @ @ @ @ # # # # = E E F z z 0 z z 0 0 z z 0 z z G H I c . .   ",
"  + u l 5 J K L L M L L M M L L M L N O P Q R S T T = # # # # # # # # # # = U U U S V W X L L M L L M M L L M L L L Y 2 Z . .   ",
"  + u l b `  .....+.....+.+.....+...@.#.$.%.&.*.=.-.;.=.>.=.=.>.>.=.=.>.=.=.>.=.>.,.'.).!.....+.....+.+.....+.....~.{.j Z . .   ",
"  + u q ].^./.(.(.(.(.(.(.(.(.(.(.(.(.(.(._.:.<.[.}.|.|.|.|.|.|.|.|.|.|.|.[.1.[.2.3.4.5.6.(.(.(.(.(.(.(.(.(.(.(.(.7.8.p l . .   ",
"  + u q 9.^./.(.(.(.(.(.(.(.(.(.(.(.(.(.(.0.a.b.c.d.[.[.[.[.[.[.[.[.[.[.e.[.f.g.h.a.i.j.(.(.(.(.(.(.(.(.(.(.(.(.(.7.k.p l.. .   ",
"  + u q y j.a m.^.m.(.(.(.(.(.(.(.(.(.(.(.n.o.p.q.r.[.[.s.[.[.s.s.[.[.s.e.t.u.v.w.x.j.i.(.(.(.m.y.(.(.(.(.(.(.j.(./ m.j l.. .   ",
"  + u u u z.A.b B.C.D.E.F.E.G.H.I.y ) J.J.y K.L.L.L.# L.# L.L.# # L.L.# L.L.L.I.d y J.J.J.M.N.O.d P.Q.R.S.S.T.l # U.L.r . . .   ",
"  + u u u 4 V.I W.L.X.Y.Z.Y.`.^  +.+! ++++J.J.l.) ) ) ) ) ) ) ) ) ) ) ) J.J.J.! k @+++++++b #+$+9.E.%+Z.Y.Y.p &+p b *+r . . .   ",
"  + u u u u u u V.5 =+-+;+>+,+'+* u u u u u u u u u u u u u u t t r r r r r r r r r r r r r r * '+,+>+;+-+=+5 V.r r r r . . .   ",
"  + u u u u u u # # =+Z.>+>+5 u u u u u u u u u u u u u u u u t t r r r r r r r r r r r r r r r r 5 >+>+Z.=+# # r r r r . . .   ",
"  + + + u u u u # # =+Z.m J.)+u u u u u u u u u u u u u u u u t t r r r r r r r r r r r r r r r r )+J.m Z.=+# # r r . . . . .   ",
"  + + + u u u u # # # # # u u u u u u u u u u u u u u u u u u t t r r r r r r r r r r r r r r r r r r # # # # # r r . . . . .   ",
"  + + + + + + + # # # # + + + + + + + + + + + + + + + + + + +     . . . . . . . . . . . . . . . . . . . # # # # . . . . . . .   ",
"  + + + + + + + + + + + + + + + + + + + + + + + + + + + + + +     . . . . . . . . . . . . . . . . . . . . . . . . . . . . . .   ",
"  + + + + + + + + + + + + + + + + + + + + + + + + + + + + + +     . . . . . . . . . . . . . . . . . . . . . . . . . . . . . .   ",
"  + + + + + + + + + + + + + + + + + + + + + + + + + + + + + +     . . . . . . . . . . . . . . . . . . . . . . . . . . . . . .   ",
"  + + + + + + + + + + + + + + + + + + + + + + + + + + + + + +     . . . . . . . . . . . . . . . . . . . . . . . . . . . . . .   ",
"  + + + + + + + + + + + + + + + + + + + + + + + + + + + + + +     . . . . . . . . . . . . . . . . . . . . . . . . . . . . . .   ",
"  + + + + + + + + + + + + + + + + + + + + + + + + + + + + + +     . . . . . . . . . . . . . . . . . . . . . . . . . . . . . .   ",
"  + + + + + + + + + + + + + + + + + + + + + + + + + + + + + +     . . . . . . . . . . . . . . . . . . . . . . . . . . . . . .   ",
"  + + + + + + + + + + + + + + + + + + + + + + + + + + + + + +     . . . . . . . . . . . . . . . . . . . . . . . . . . . . . .   ",
"  + + + + + + + + + + + + + + + + + + + + + + + + + + + + + +     . . . . . . . . . . . . . . . . . . . . . . . . . . . . . .   ",
"  + + + + + + + + + + + + + + + + + + + + + + + + + + + + + +     . . . . . . . . . . . . . . . . . . . . . . . . . . . . . .   ",
"  + + + + + + + + + + + + + + + + + + + + + + + + + + + + + +     . . . . . . . . . . . . . . . . . . . . . . . . . . . . . .   ",
"  + + + + + + + + + + + + + + + + + + + + + + + + + + + + + +     . . . . . . . . . . . . . . . . . . . . . . . . . . . . . .   ",
"                                                                                                                                "};
