/* XPM */
static char * sprite2_xpm[] = {
"64 64 3 1",
" 	c #787878",
".	c #FFFFFF",
"+	c #C3C3C3",
"                                                                ",
" ..............................  ++++++++++++++++++++++++++++++ ",
" ..............................  ++++++++++++++++++++++++++++++ ",
" ..............................  ++++++++++++++++++++++++++++++ ",
" ..............................  ++++++++++++++++++++++++++++++ ",
" ..............................  ++++++++++++++++++++++++++++++ ",
" ..............................  ++++++++++++++++++++++++++++++ ",
" ..............................  ++++++++++++++++++++++++++++++ ",
" ..............................  ++++++++++++++++++++++++++++++ ",
" ..............................  ++++++++++++++++++++++++++++++ ",
" ..............................  ++++++++++++++++++++++++++++++ ",
" ..............................  ++++++++++++++++++++++++++++++ ",
" ..............................  ++++++++++++++++++++++++++++++ ",
" ..............................  ++++++++++++++++++++++++++++++ ",
" ..............................  ++++++++++++++++++++++++++++++ ",
" ..............................  ++++++++++++++++++++++++++++++ ",
" ..............................  ++++++++++++++++++++++++++++++ ",
" ..............................  ++++++++++++++++++++++++++++++ ",
" ..............................  ++++++++++++++++++++++++++++++ ",
" ..............................  ++++++++++++++++++++++++++++++ ",
" ..............................  ++++++++++++++++++++++++++++++ ",
" ..............................  ++++++++++++++++++++++++++++++ ",
" ..............................  ++++++++++++++++++++++++++++++ ",
" ..............................  ++++++++++++++++++++++++++++++ ",
" ..............................  ++++++++++++++++++++++++++++++ ",
" ..............................  ++++++++++++++++++++++++++++++ ",
" ..............................  ++++++++++++++++++++++++++++++ ",
" ..............................  ++++++++++++++++++++++++++++++ ",
" ..............................  ++++++++++++++++++++++++++++++ ",
" ..............................  ++++++++++++++++++++++++++++++ ",
" ..............................  ++++++++++++++++++++++++++++++ ",
"                                                                ",
"                                                                ",
" ++++++++++++++++++++++++++++++  .............................. ",
" ++++++++++++++++++++++++++++++  .............................. ",
" ++++++++++++++++++++++++++++++  .............................. ",
" ++++++++++++++++++++++++++++++  .............................. ",
" ++++++++++++++++++++++++++++++  .............................. ",
" ++++++++++++++++++++++++++++++  .............................. ",
" ++++++++++++++++++++++++++++++  .............................. ",
" ++++++++++++++++++++++++++++++  .............................. ",
" ++++++++++++++++++++++++++++++  .............................. ",
" ++++++++++++++++++++++++++++++  .............................. ",
" ++++++++++++++++++++++++++++++  .............................. ",
" ++++++++++++++++++++++++++++++  .............................. ",
" ++++++++++++++++++++++++++++++  .............................. ",
" ++++++++++++++++++++++++++++++  .............................. ",
" ++++++++++++++++++++++++++++++  .............................. ",
" ++++++++++++++++++++++++++++++  .............................. ",
" ++++++++++++++++++++++++++++++  .............................. ",
" ++++++++++++++++++++++++++++++  .............................. ",
" ++++++++++++++++++++++++++++++  .............................. ",
" ++++++++++++++++++++++++++++++  .............................. ",
" ++++++++++++++++++++++++++++++  .............................. ",
" ++++++++++++++++++++++++++++++  .............................. ",
" ++++++++++++++++++++++++++++++  .............................. ",
" ++++++++++++++++++++++++++++++  .............................. ",
" ++++++++++++++++++++++++++++++  .............................. ",
" ++++++++++++++++++++++++++++++  .............................. ",
" ++++++++++++++++++++++++++++++  .............................. ",
" ++++++++++++++++++++++++++++++  .............................. ",
" ++++++++++++++++++++++++++++++  .............................. ",
" ++++++++++++++++++++++++++++++  .............................. ",
"                                                                "};
