/* XPM */
static char * sprite62_xpm[] = {
"64 64 9 1",
" 	c #787878",
".	c #FFFFFF",
"+	c #C3C3C3",
"@	c #2C342A",
"#	c #A685A3",
"$	c #896A86",
"%	c #787C76",
"&	c #40443E",
"*	c #9F3131",
"                                                                ",
" ..............................  ++++++++++++++++++++++++++++++ ",
" .........@@@@.................  ++++++++++++++++++++++++++++++ ",
" .........@@@@.................  ++++++++++++++++++++++++++++++ ",
" .........@@@@.................  ++++++++++++++++++++++++++++++ ",
" .........@@@@.................  ++++++++++++++++++++++++++++++ ",
" .....@@@@####@@@@.............  ++++++++++++++++++++++++++++++ ",
" .....@@@@####@@@@.............  ++++++++++++++++++++++++++++++ ",
" .....@@@@####@@@@.............  ++++++++++++++++++++++++++++++ ",
" .....@@@@####@@@@.............  ++++++++++++++++++++++++++++++ ",
" .@@@@$$$$@@@@.................  ++++++++++++++++++++++++++++++ ",
" .@@@@$$$$@@@@.................  ++++++++++++++++++++++++++++++ ",
" .@@@@$$$$@@@@.................  ++++++++++++++++++++++++++++++ ",
" .@@@@$$$$@@@@.................  ++++++++++++++++++++++++++++++ ",
" .@@@@####@@@@.................  ++++++++++++++++++++++++++++++ ",
" .@@@@####@@@@.................  ++++++++++++++++++++++++++++++ ",
" .@@@@####@@@@.................  ++++++++++++++++++++++++++++++ ",
" .@@@@####@@@@.................  ++++++++++++++++++++++++++++++ ",
" .@@@@$$$$@@@@@@@@.............  +++++++++@@@@@@@@@@@@@@@@+++++ ",
" .@@@@$$$$@@@@@@@@.............  +++++++++@@@@@@@@@@@@@@@@+++++ ",
" .@@@@$$$$@@@@@@@@.............  +++++++++@@@@@@@@@@@@@@@@+++++ ",
" .@@@@$$$$@@@@@@@@.............  +++++++++@@@@@@@@@@@@@@@@+++++ ",
" .....@@@@####$$$$@@@@@@@@@@@@@@@@@@@@@@@@%%%%&&&&@@@@&&&&@@@@+ ",
" .....@@@@####$$$$@@@@@@@@@@@@@@@@@@@@@@@@%%%%&&&&@@@@&&&&@@@@+ ",
" .....@@@@####$$$$@@@@@@@@@@@@@@@@@@@@@@@@%%%%&&&&@@@@&&&&@@@@+ ",
" .....@@@@####$$$$@@@@@@@@@@@@@@@@@@@@@@@@%%%%&&&&@@@@&&&&@@@@+ ",
" .........@@@@@@@@&&&&&&&&&&&&&&&&&&&&@@@@%%%%&&&&@@@@&&&&&&&&@@",
" .........@@@@@@@@&&&&&&&&&&&&&&&&&&&&@@@@%%%%&&&&@@@@&&&&&&&&@@",
" .........@@@@@@@@&&&&&&&&&&&&&&&&&&&&@@@@%%%%&&&&@@@@&&&&&&&&@@",
" .........@@@@@@@@&&&&&&&&&&&&&&&&&&&&@@@@%%%%&&&&@@@@&&&&&&&&@@",
" .....@@@@####&&&&&&&&&&&&&&&&&&&&&&&&@@@@&&&&%%%%&&&&&&&&&&&&@@",
"      @@@@####&&&&&&&&&&&&&&&&&&&&&&&&@@@@&&&&%%%%&&&&&&&&&&&&@@",
"      @@@@####&&&&&&&&&&&&&&&&&&&&&&&&@@@@&&&&%%%%&&&&&&&&&&&&@@",
" +++++@@@@####&&&&&&&&&&&&&&&&&&&&&&&&@@@@&&&&%%%%&&&&&&&&&&&&@@",
" +++++@@@@@@@@&&&&&&&&&&&&&&&&&&&&&&&&&&&&@@@@&&&&&&&&****&&&&@@",
" +++++@@@@@@@@&&&&&&&&&&&&&&&&&&&&&&&&&&&&@@@@&&&&&&&&****&&&&@@",
" +++++@@@@@@@@&&&&&&&&&&&&&&&&&&&&&&&&&&&&@@@@&&&&&&&&****&&&&@@",
" +++++@@@@@@@@&&&&&&&&&&&&&&&&&&&&&&&&&&&&@@@@&&&&&&&&****&&&&@@",
" +++++++++++++@@@@@@@@&&&&&&&&&&&&&&&&&&&&&&&&@@@@&&&&&&&&&&&&@@",
" +++++++++++++@@@@@@@@&&&&&&&&&&&&&&&&&&&&&&&&@@@@&&&&&&&&&&&&@@",
" +++++++++++++@@@@@@@@&&&&&&&&&&&&&&&&&&&&&&&&@@@@&&&&&&&&&&&&@@",
" +++++++++++++@@@@@@@@&&&&&&&&&&&&&&&&&&&&&&&&@@@@&&&&&&&&&&&&@@",
" +++++++++++++@@@@$$$$@@@@&&&&&&&&&&&&&&&&&&&&&&&&@@@@&&&&&&&&@@",
" +++++++++++++@@@@$$$$@@@@&&&&&&&&&&&&&&&&&&&&&&&&@@@@&&&&&&&&@@",
" +++++++++++++@@@@$$$$@@@@&&&&&&&&&&&&&&&&&&&&&&&&@@@@&&&&&&&&@@",
" +++++++++++++@@@@$$$$@@@@&&&&&&&&&&&&&&&&&&&&&&&&@@@@&&&&&&&&@@",
" +++++++++++++++++@@@@++++@@@@@@@@@@@@@@@@@@@@&&&&####@@@@@@@@. ",
" +++++++++++++++++@@@@++++@@@@@@@@@@@@@@@@@@@@&&&&####@@@@@@@@. ",
" +++++++++++++++++@@@@++++@@@@@@@@@@@@@@@@@@@@&&&&####@@@@@@@@. ",
" +++++++++++++++++@@@@++++@@@@@@@@@@@@@@@@@@@@&&&&####@@@@@@@@. ",
" ++++++++++++++++++++++++++++++  .............@@@@@@@@......... ",
" ++++++++++++++++++++++++++++++  .............@@@@@@@@......... ",
" ++++++++++++++++++++++++++++++  .............@@@@@@@@......... ",
" ++++++++++++++++++++++++++++++  .............@@@@@@@@......... ",
" ++++++++++++++++++++++++++++++  .............................. ",
" ++++++++++++++++++++++++++++++  .............................. ",
" ++++++++++++++++++++++++++++++  .............................. ",
" ++++++++++++++++++++++++++++++  .............................. ",
" ++++++++++++++++++++++++++++++  .............................. ",
" ++++++++++++++++++++++++++++++  .............................. ",
" ++++++++++++++++++++++++++++++  .............................. ",
" ++++++++++++++++++++++++++++++  .............................. ",
" ++++++++++++++++++++++++++++++  .............................. ",
"                                                                "};
