/* XPM */
static char * sprite1_xpm[] = {
"64 64 9 1",
" 	c #2E2E2E",
".	c #7C8B8B",
"+	c #F2F2F2",
"@	c #414141",
"#	c #C8BFE7",
"$	c #787878",
"%	c #C3C3C3",
"&	c #7092BE",
"*	c #FFFFFF",
"                                                                ",
"                                                                ",
"  ...++++++++++++++++++++++++++++++++++++++++++++++++++++++...  ",
"  ...++++++++++++++++++++++++++++++++++++++++++++++++++++++...  ",
"  ...++++++++++++++++++++++++++++++++++++++++++++++++++++++...  ",
"  ...++++++++++++++++++++++++++++++++++++++++++++++++++++++...  ",
"  ...++++++++++++++++++++++++++++++++++++++++++++++++++++++...  ",
"  ...++++++++@@ #####  @@++++++++++++++@@  ####  @@++++++++...  ",
"  ...++++++++@@ #####  @@++++++++++++++@@  ####  @@++++++++...  ",
"  ...++++++++##@$$$$$@@##++++++++++++++##@@$$$$@@##++++++++...  ",
"  ...++++++++##@$$$$$@@##++++++++++++++##@@$$$$@@##++++++++...  ",
"  ...++++++++##$$$$$$$$##++++++++++++++##$$$$$$$$##++++++++...  ",
"  ...++++++++##$$$$$$$$##++++++++++++++##$$$$$$$$##++++++++...  ",
"  ...++++++++##$$$$$$$$##++++++++++++++##$$$$$$$$##++++++++...  ",
"  ...++++++++  @$$$$$@@  ++++++++++++++  @@$$$$@@  ++++++++...  ",
"  ...++++++++  @$$$$$@@  ++++++++++++++  @@$$$$@@  ++++++++...  ",
"  ...++++++++@@########@@++++++++++++++@@########  ++++++++...  ",
"  ...++++++++++++++++++++++++++++++++++++++++++++++++++++++...  ",
"  ...++++++++++++++++++++++++++++++++++++++++++++++++++++++...  ",
"  ...++++++++++++++++++++++++++++++++++++++++++++++++++++++...  ",
"  ...++++++++++++++++++++++++++++++++++++++++++++++++++++++...  ",
"  ...++++++++++++++++++++++++++++++++++++++++++++++++++++++...  ",
"  ...++++++++++++++++++++++++++++++++++++++++++++++++++++++...  ",
"  ...++++++++++++++++++++++++++++++++++++++++++++++++++++++...  ",
"  ...++++++++++++++++++++++++++++++++++++++++++++++++++++++...  ",
"  ...++++++++++++++++++++++++++++++++++++++++++++++++++++++...  ",
"  ...++++++++@@ #####  @@++++++++++++++@@  ####  @@++++++++...  ",
"  ...++++++++@@ #####  @@++++++++++++++@@  ####  @@++++++++...  ",
"  ...++++++++##@$$$$$@@##++++++++++++++##@@$$$$@@##++++++++...  ",
"  ...++++++++##$$$$$$$$##++++++++++++++##$$$$$$$$##++++++++...  ",
"  ...++++++++##$$$$$$$$##++++++++++++++##$$$$$$$$##++++++++...  ",
"  ...++++++++##$$$$$$$$##++++++++++++++##$$$$$$$$##++++++++...  ",
"  ...++++++++##$$$$$$$$##++++++++++++++##$$$$$$$$##++++++++...  ",
"  ...++++++++  @$$$$$@@  ++++++++++++++  @@$$$$@@  ++++++++...  ",
"  ...++++++++@@########@@++++++++++++++@@########@@++++++++...  ",
"  ...++++++++@@########@@++++++++++++++@@########@@++++++++...  ",
"  ...++++++++++++++++++++++++++++++++++++++++++++++++++++++...  ",
"  ...++++++++++++++++++++++++++++++++++++++++++++++++++++++...  ",
"  ...++++++++++++++++++++++++++++++++++++++++++++++++++++++...  ",
"  ...++++++++++++++++++++++++++++++++++++++++++++++++++++++...  ",
"  ...++++++++++++++++++++++++++++++++++++++++++++++++++++++...  ",
"  ...++++++++++++++++++++++++++++++++++++++++++++++++++++++...  ",
"  ...++++++++++++++++++++++++++++++++++++++++++++++++++++++...  ",
"  ...++++++++++++++++++++++++++++++++++++++++++++++++++++++...  ",
"  ............................................................  ",
"  ............................................................  ",
"  ............................................................  ",
"                                                                ",
"                                                                ",
"$% &&&&&&&&&&&&&&&&&&&&&&&&&&&&&&&&&&&&&&&&&&&&&&&&&&&&&&&&&& *$",
"$% #######@@@###@@@@########################@@@####@@@####### *$",
"$% #######@@@###@@@@########################@@@####@@@####### *$",
"$% #######@@@###@@@@########################@@@####@@@####### *$",
"$% #######@@@###@@@@########################@@@####@@@####### *$",
"$% ########################################################## *$",
"$% &&######################################################&& *$",
"$% &&######################################################&& *$",
"$% &&&###################################################&&&& *$",
"$% &&&###################################################&&&& *$",
"$% &&&&&&&&&&&&&&&&&&&&&&&&&&&&&&&&&&&&&&&&&&&&&&&&&&&&&&&&&& *$",
"$% &&&&&&&&&&&&&&&&&&&&&&&&&&&&&&&&&&&&&&&&&&&&&&&&&&&&&&&&&& *$",
"$% &&&&&&&&&&&&&&&&&&&&&&&&&&&&&&&&&&&&&&&&&&&&&&&&&&&&&&&&&& *$",
"$%                                                            *$",
"$$                                                            $$"};
