/* XPM */
static char * sprite3_xpm[] = {
"64 64 23 1",
" 	c #787878",
".	c #FFFFFF",
"+	c #C3C3C3",
"@	c #D3072B",
"#	c #EABABC",
"$	c #F0D5D5",
"%	c #6C6C6C",
"&	c #FBF1F2",
"*	c #CC8A8D",
"=	c #E39B9E",
"-	c #FFFEFE",
";	c #C3C2C2",
">	c #D0152F",
",	c #515151",
"'	c #2F2F2F",
")	c #A93740",
"!	c #DD7D82",
"~	c #8B4447",
"{	c #E19598",
"]	c #E4A1A4",
"^	c #CC172F",
"/	c #E19397",
"(	c #E29C9F",
"                                                                ",
" ..............................  ++++++++++++++++++++++++++++++ ",
" ..............................  ++++++++++++++++++++++++++++++ ",
" ............................@@@@@@++++++++++++++++++++++++++++ ",
" ..........................@@@@@@@@@@++++++++++++++++++++++++++ ",
" ........................#@@@@@@@@@@@@+++++++++++++++++++++++++ ",
" ........................@@@@$$$$$$@@@@++++++++++++++++++++++++ ",
" .......................@@@@$$$$$$$$$@@@+++++++++++++++++++++++ ",
" ......................%@@@$$$$$$$$$$@@@+++++++++++++++++++++++ ",
" ......................@@@$$$$$$$$$$$$@@@++++++++++++++++++++++ ",
" .....................%@@@$$$$$$$$$$$$@@@++++++++++++++++++++++ ",
" .....................%@@@$$$$$$$$$$$$@@@++++++++++++++++++++++ ",
" ............&@@@@...%%@@@$$$$$$$$$$$$@@@++++*@@@@@++++++++++++ ",
" ..........=@@@@@@@@@%%@@@$$$$$$$$$$$$@@@++@@@@@@@@@@++++++++++ ",
" .........@@@@@@@@@@@@%@@@$$$$$$$$$$$$@@@+@@@@@@@@@@@@+++++++++ ",
" ........@@@@@$$$$@@@@@@@@$$$$$$$$$$$$@@@@@@@@$$$$@@@@@++++++++ ",
" .......-@@@$$$$$$$$@@@@@@$$$$$$$$$$$$@@@@@@$$$$$$$$@@@;+++++++ ",
" .......@@@$$$$$$$$$$$@@@@@$$$$$$$$$$@@@@@$$$$$$$$$$$@@@+++++++ ",
" ......%@@@$$$$$$$$$$$$@@@@$$$$$$$$$$@@@@$$$$$$$$$$$$@@@+++++++ ",
" .....-@@@$$$$$$$$$$$$$$@@@$$$$$$$$$$@@@$$$$$$$$$$$$$$@@@++++++ ",
" .....%@@@$$$$$$$$$$$$$$$@@@$$$$$$$$@@@$$$$$$$$$$$$$$$@@@++++++ ",
" .....%@@@$$$$$$$$$$$$$$$@@@$$$$$$$$@@@$$$$$$$$$$$$$$$@@@++++++ ",
" ....%%@@@$$$$$$$$$$$$$$$$@@$$$$$$$$@@$$$$$$$$$$$$$$$$@@@++++++ ",
" ....%%@@@$$$$$$$$$$$$$$$$$@@$$$$$$@@$$$$$$$$$$$$$$$$$@@@++++++ ",
" ....%%>@@@$$$$$$$$$$$$$$$$$$$$$$$$$$$$$$$$$$$$$$$$$$@@@+++++++ ",
" ....%%%@@@$$$$$$$$$$$$$$$$$$$$$$$$$$$$$$$$$$$$$$$$$$@@@+++++++ ",
" ....%%%%@@@@$$$$$$$$$$$$$$$$$$$$$$$$$$$$$$$$$$$$$$@@@@++++++++ ",
" ....%%%%@@@@@$$$$$$$$$$$$$$$$$$$$$$$$$$$$$$$$$$$$@@@@+++++++++ ",
" .....%%%%%@@@@@@$$$$$$$$$$$$$$$$$$$$$$$$$$$$$$@@@@@@,+++++++++ ",
" ......%%%%%@@@@@@@@@@$$$$$$$$$$$$$$$$$$$$@@@@@@@@@@,++++++++++ ",
" ......%%%%%%%@@@@@@@@@@$$$$$$$$$$$$$$$@@@@@@@@@@@,,+++++++++++ ",
"         '''@@@@@@@@@@@$$$$$$$$$$$$$$$$$$@@@@@@@@@@@            ",
"          '@@@@@@$$$$$$$$$$$$$$$$$$$$$$$$$$$$$$@@@@@@           ",
" +++++++++@@@@)$$$$$$$$$$$$$$$$$$$$$$$$$$$$$$$$$$!@@@@@........ ",
" ++++++++@@@@$$$$$$$$$$$$$$$$$$$$$$$$$$$$$$$$$$$$$$@@@@........ ",
" +++++++@@@~$$$$$$$$$$$$$$$$$$$$$$$$$$$$$$$$$$$$$$$${@@@....... ",
" +++++++@@@$$$$$$$$$$$$$$$$$$$$$$$$$$$$$$$$$$$$$$$$$$@@@]...... ",
" ++++++@@@$$$$$$$$$$$$$$$$$@@$$$$$$@@$$$$$$$$$$$$$$$$$@@@...... ",
" +++++,@@@$$$$$$$$$$$$$$$$@@$$$$$$$$@@$$$$$$$$$$$$$$$$@@@...... ",
" +++++,@@@$$$$$$$$$$$$$$$@@@$$$$$$$$@@@$$$$$$$$$$$$$$$@@@...... ",
" ++++,,@@@$$$$$$$$$$$$$$$@@@$$$$$$$$@@@$$$$$$$$$$$$$$$@@@...... ",
" ++++,,@@@$$$$$$$$$$$$$$@@@$$$$$$$$$$@@@$$$$$$$$$$$$$$@@@...... ",
" ++++,,^@@@$$$$$$$$$$$$@@@@$$$$$$$$$$@@@@$$$$$$$$$$$$@@@/...... ",
" ++++,,,@@@$$$$$$$$$$$@@@@@$$$$$$$$$$@@@@@$$$$$$$$$$$@@@....... ",
" ++++,,,@@@@$$$$$$$$@@@@@@$$$$$$$$$$$$@@@@@@$$$$$$$$@@@@....... ",
" ++++,,,,@@@@@$$$$@@@@@@@@$$$$$$$$$$$$@@@@@@@@$$$$@@@@@........ ",
" +++++,,,,@@@@@@@@@@@@,@@@$$$$$$$$$$$$@@@%@@@@@@@@@@@@......... ",
" +++++,,,,,@@@@@@@@@@,,@@@$$$$$$$$$$$$@@@%%@@@@@@@@@@%......... ",
" ++++++,,,,,,@@@@@@,,,,@@@$$$$$$$$$$$$@@@%%%%%@@@@@%%.......... ",
" +++++++,,,,,,,,,,,,+,,@@@$$$$$$$$$$$$@@@%%%%%%%%%%%........... ",
" ++++++++,,,,,,,,,,++,,@@@$$$$$$$$$$$$@@@%%%%%%%%%%............ ",
" ++++++++++,,,,,,++++,,@@@$$$$$$$$$$$$@@@...%%%%%.............. ",
" ++++++++++++++++++++,,,@@@$$$$$$$$$$@@@....................... ",
" ++++++++++++++++++++,,,@@@@$$$$$$$$$@@@....................... ",
" ++++++++++++++++++++,,,,@@@@$$$$$$@@@@........................ ",
" +++++++++++++++++++++,,,,@@@@@@@@@@@@(........................ ",
" +++++++++++++++++++++,,,,,@@@@@@@@@@%......................... ",
" ++++++++++++++++++++++,,,,,,@@@@@@%%.......................... ",
" +++++++++++++++++++++++,,,,,,,''%%%%.......................... ",
" ++++++++++++++++++++++++,,,,,,''%%............................ ",
" ++++++++++++++++++++++++++,,,,''.............................. ",
" ++++++++++++++++++++++++++++++  .............................. ",
" ++++++++++++++++++++++++++++++  .............................. ",
"                                                                "};
