/* XPM */
static char * sprite01_xpm[] = {
"64 64 27 1",
" 	c #787878",
".	c #FFFFFF",
"+	c #C3C3C3",
"@	c #0D0F0D",
"#	c #FFFFEB",
"$	c #CCBEB4",
"%	c #190E0E",
"&	c #FFD4A8",
"*	c #DADADA",
"=	c #000000",
"-	c #454545",
";	c #272727",
">	c #5D5D5D",
",	c #4F4F4F",
"'	c #6A6A6A",
")	c #ABABAB",
"!	c #525252",
"~	c #6E6E6E",
"{	c #E0E0E0",
"]	c #868686",
"^	c #5C5C5C",
"/	c #4C4C4C",
"(	c #464646",
"_	c #5F5F5F",
":	c #656565",
"<	c #7B7B7B",
"[	c #B1B1B1",
"                                                                ",
" ..............................  ++++++++++++++++++++++++++++++ ",
" ..............................  ++++++++++++++++++++++++++++++ ",
" ..............................  ++++++++++++++++++++++++++++++ ",
" ..............................  ++++++++++++++++++++++++++++++ ",
" .................@@@@@@@@@@@@@@@@@@@@@@@@@@@@@++++++++++++++++ ",
" .................@@@@@@@@@@@@@@@@@@@@@@@@@@@@@++++++++++++++++ ",
" .................@@@@@@@@@@@@@@@@@@@@@@@@@@@@@++++++++++++++++ ",
" .................@@@######################@@@@++++++++++++++++ ",
" .................@@@######################@@@@++++++++++++++++ ",
" .................@@@######################@@@@++++++++++++++++ ",
" .................@@@###$$$####$$$###$$$###@@@@++++++++++++++++ ",
" .................@@@###$$$####$$$###$$$###@@@@++++++++++++++++ ",
" .................@@@###$$$####$$$###$$$###@@@@++++++++++++++++ ",
" .................@@@###$$$####$$$###$$$###@@@@++++++++++++++++ ",
" .................@@@###$$$####$$$###$$$###@@@@++++++++++++++++ ",
" .................@@@###$$$####$$$###$$$###@@@@++++++++++++++++ ",
" .................@@@###$$$####$$$###$$$###@@@@++++++++++++++++ ",
" .................@@@###$$$####$$$###$$$###@@@@++++++++++++++++ ",
" .................@@@###$$$####$$$###$$$###@@@@++++++++++++++++ ",
" .................@@@###$$$####$$$###$$$###@@@@++++++++++++++++ ",
" .................@@@@@@@@@@@@@@@@@@@@@@@@@@@@@++++++++++++++++ ",
" .................@@@@@@@@@@@@@@@@@@@@@@@@@@@@@++++++++++++++++ ",
" .................@@@@@@@@@@@@@@@@@@@@@@@@@@@@@++++++++++++++++ ",
" .................%%%&&&&&&%%%%&&&&&&%%%&&&%%%%++++++++++++++++ ",
" .................%%%&&&&&&%%%%&&&&&&%%%&&&%%%%++++++++++++++++ ",
" .................%%%&&&&&&%%%%&&&&&&%%%&&&%%%%++++++++++++++++ ",
" .................%%%***&&&&&&&&&&&&&&&&&&&%%%%++++++++++++++++ ",
" .................%%%***&&&&&&&&****&&&&&&&%%%%++++++++++++++++ ",
" .................%%%***&&&&&&&******&&&&&&%%%%++++++++++++++++ ",
" .................%%%************&&********%%%%++++++++++++++++ ",
"                  %%%***********&&&&*******%%%%                 ",
"                  %%%***********&&&&*******%%%%                 ",
" ++++++++++++++++++++%%%##########$$$###%%%.................... ",
" ++++++++++++++++++++%%%##########$$$###%%%.................... ",
" +++++++++++++++++%%%###################%%%.................... ",
" +++++++++++++++++%%%###################%%%.................... ",
" +++++++++++++++++%%%###################%%%.................... ",
" ++++++++++++++%%%######$$$################%%%%................ ",
" ++++++++++++++%%%######$$$################%%%%................ ",
" ++++++++++++++%%%######$$$################%%%%................ ",
" ++++++++++++++%%%######$$$################%%%%................ ",
" ++++++++++++++%%%######$$$################%%%%................ ",
" ++++++++++++++%%%######$$$################%%%%................ ",
" ++++++++++++++%%%&&&&&&$$$$$$$$$$$$$$$$&&&%%%%................ ",
" ++++++++++++++%%%&&&&&&$$$$$$$$$$$$$$$$&&&%%%%................ ",
" ++++++++++++++%%%&&&&&&$$$$$$$$$$$$$$$$&&&%%%%................ ",
" +++++++++++++++++%%%###%%%%%%%%%%%%%###%%%.................... ",
" +++++++++++++++++%%%###%%%%%%%%%%%%%###%%%.................... ",
" +++++++++++++++++%%%###%%%%%%%%%%%%%###%%%.................... ",
" +++++++++++++++++%%%###%%%%%%%%%%%%%###%%%.................... ",
" ++++++++++++++%%%======%%%++++  .%%%======%%%%................ ",
" ++++++++++++++%%%======%%%++++  .%%%======%%%%................ ",
" ++++++++++++++%%%======%%%++++  .%%%======%%%%................ ",
" ++++++++++++++%%%%%%%%%%%%----;;>%%%%%%%%%%%%%................ ",
" ++++++++++++++%%%%%%%%%%%%----;;>%%%%%%%%%%%%%................ ",
" ++++++++++++++%%%%%%%%%%%%----;;>%%%%%%%%%%%%%................ ",
" ++++++++++++++----------------;;>>>>>>>>>>>>>>................ ",
" ++++++++++++++,---------------;;>>>>>>>>>>>>>'................ ",
" +++++++++++++++)!-------------;;>>>>>>>>>>>~{................. ",
" +++++++++++++++++++]^/(-------;;>>>>>_:<[..................... ",
" ++++++++++++++++++++++++++++++  .............................. ",
" ++++++++++++++++++++++++++++++  .............................. ",
"                                                                "};
