/* XPM */
static char * sprite5_xpm[] = {
"64 64 34 1",
" 	c #787878",
".	c #FFFFFF",
"+	c #C3C3C3",
"@	c #0D0F0D",
"#	c #FFFFEB",
"$	c #CCBEB4",
"%	c #000000",
"&	c #FEDB75",
"*	c #F8D058",
"=	c #F8F8F8",
"-	c #C86000",
";	c #FFD4A8",
">	c #190E0E",
",	c #DADADA",
"'	c #030101",
")	c #424242",
"!	c #252525",
"~	c #595959",
"{	c #140B0B",
"]	c #050202",
"^	c #040202",
"/	c #4D4D4D",
"(	c #676767",
"_	c #AAAAAA",
":	c #505050",
"<	c #6B6B6B",
"[	c #DFDFDF",
"}	c #858585",
"|	c #5A5A5A",
"1	c #494949",
"2	c #434343",
"3	c #5B5B5B",
"4	c #626262",
"5	c #B0B0B0",
"                                                                ",
" ..............................  ++++++++++++++++++++++++++++++ ",
" ..............................  ++++++++++++++++++++++++++++++ ",
" ...................@@@@@@@@@@@@@@@@@@@@@@@@@@@@@++++++++++++++ ",
" ...................@@@@@@@@@@@@@@@@@@@@@@@@@@@@@++++++++++++++ ",
" ...................@@@@@@@@@@@@@@@@@@@@@@@@@@@@@++++++++++++++ ",
" ...................@@@#######################@@@++++++++++++++ ",
" ...................@@@#######################@@@++++++++++++++ ",
" ...................@@@#######################@@@++++++++++++++ ",
" ...................@@@#######################@@@++++++++++++++ ",
" ...................@@@###$$$$###$$$####$$$###@@@++++++++++++++ ",
" ...................@@@###$$$$###$$$####$$$###@@@++++++++++++++ ",
" ...................@@@###$$$$###$$$####$$$###@@@++++++++++++++ ",
" ...................@@@###$$$$###$$$####$$$###@@@++++++++++++++ ",
" ...................@@@###$$$$###$$$####$$$###@@@++++++++++++++ ",
" .......%...........@@@###$$$$###$$$####$$$###@@@++++++++++++++ ",
" ...%..%&%..........@&@###$$$$###$$$####$$$###@@@++++++++++++++ ",
" ..%&%..%...........%&%###$$$$###$$$####$$$###@@@++++++++++++++ ",
" .%&&&%...*%%%%%%%%%&&&%##$$$$###$$$####$$$###@@@++++++++++++++ ",
" ..%&%..*%%**====*%&&&&&%@@@@@@@@@@@@@@@@@@@@@@@@++++++++++++++ ",
" ...%..*%*=%%%%%%%%%&&&%@@@@@@@@@@@@@@@@@@@@@@@@@++++++++++++++ ",
" .....*%=%%========%%&%*@@@@@@@@@@@@@@@@@@@@@@@@@++++++++++++++ ",
" ....*%*%=**%%%--%**%&%%*@@@@@@@@@@@@@@@@@@@@@@@@++++++++++++++ ",
" ....%*%%%--*******-%%%*%;>>>>;;;;;;;;;;>>>;;;>>>++++++++++++++ ",
" ..%%=%*--***---*-**--*%=%%>>>;;;;;;;;;;>>>;;;>>>++++++++++++++ ",
" .%==*%%*****-%-=*-**-%%***>>>;;;;;;;;;;>>>;;;>>>++++++++++++++ ",
" .%=*%--**-%-*--=-%-**-*%**;;;;;;;;;;;;;;;;;;;>>>++++++++++++++ ",
" .%=*%****-=**==*-%%--*-%**;;;;;;;;;;;;;;;;;;;>>>++++++++++++++ ",
" .*%**%-*--%--%%-*--***%=*%*;;;;;;,,,,;;;;;;;;>>>++++++++++++++ ",
" .%%%*%-***-%*---*****-%*%%%;;;;;,,,,,,;;;;;;;>>>++++++++++++++ ",
" .%-%%*%-***-********-%*%%-%,,,,,,,;;,,,,,,,,,>>>++++++++++++++ ",
"  %*%%%*%-*********-*-*%%%*%,,,,,,;;;;,,,,,,,,>>>               ",
"  %=*%--%*=%%-%-%%%=*%--%*=%,,,,,,;;;;,,,,,,,,>>>               ",
" +-=*-%--%%**====**%%--%-*=-#####$$$#######>>>................. ",
" ++*=*-%---%%%%%%%%---%-*=*######$$$#######>>>................. ",
" ++%*=**%%%--------%%%**=*%######$$$#######>>>................. ",
" ++-%*==**-%%%%%%%%-**==*%-###################>>>.............. ",
" ++++-%%***========***%%->####################>>>.............. ",
" ++++++-%%%********%%%->>>####################>>>.............. ",
" +++++++++-%%%%%%%%-;;;>>>#######$$$#######$$$###>>>>.......... ",
" +++++++++>>>;;;;;;;;;;>>>#######$$$#######$$$###>>>>.......... ",
" +++++++++>>>;;;;;;;;;;>>>#######$$$#######$$$###>>>>.......... ",
" ++++++++++++>>>>>>>>>>##########################>>>>.......... ",
" ++++++++++++>>>>>>>>>>##########################>>>>.......... ",
" ++++++++++++>>>>>>>>>>##########################>>>>.......... ",
" ++++++++++++>>>>>>>>>>##########################>>>>.......... ",
" +++++++++++++++++++>>>$$$$$$$$$$$$$$$$$$$$;;;;;;>>>>.......... ",
" +++++++++++++++++++>>>$$$$$$$$$$$$$$$$$$$$;;;;;;>>>>.......... ",
" +++++++++++++++++++>>>$$$$$$$$$$$$$$$$$$$$;;;;;;>>>>.......... ",
" +++++++++++++++++++>>>###>>>>>>>>>>>>>>###>>>>>>.............. ",
" +++++++++++++++++++>>>###>>>>>>>>>>>>>>###>>>>>>.............. ",
" +++++++++++++++++++>>>###>>>>>>>>>>>>>>###>>>>>>.............. ",
" ++++++++++++++++>>>%%%%%%>>>>+  ...>>>>%%%%%%>>>.............. ",
" ++++++++++++++++>>>%%%%%%>>>>+  ...>>>>%%%%%%>>>.............. ",
" ++++++++++++++++>>>%%%%%%>>>>+  ...>>>>%%%%%%>>>.............. ",
" ++++++++++++++++>>>%%%%%%'''')!!~~~''''%%%%%%>>>.............. ",
" ++++++++++++++++>{]'''''''''')!!~~~'''''''''']{>.............. ",
" ++++++++++++++++^'''''''''''')!!~~~''''''''''''^.............. ",
" ++++++++++++++++''''''''''''')!!~~~'''''''''''''.............. ",
" ++++++++++++++++/)))))))))))))!!~~~~~~~~~~~~~~~(.............. ",
" +++++++++++++++++_:)))))))))))!!~~~~~~~~~~~~~<[............... ",
" +++++++++++++++++++++}|12)))))!!~~~~~~~34 5................... ",
" ++++++++++++++++++++++++++++++  .............................. ",
"                                                                "};
